<?xml version="1.0" encoding="UTF-8"?>
<svg width="101px" height="30px" viewBox="0 0 101 30" version="1.1" xmlns="http://www.w3.org/2000/svg" xmlns:xlink="http://www.w3.org/1999/xlink">
    <!-- Generator: Sketch 41.2 (35397) - http://www.bohemiancoding.com/sketch -->
    <title>Untitled 6</title>
    <desc>Created with Sketch.</desc>
    <defs></defs>
    <g id="Page-1" stroke="none" stroke-width="1" fill="none" fill-rule="evenodd">
        <g transform="translate(-48.000000, -159.000000)" id="Fill-6" fill="#000000">
            <path d="M58.6936,166.4853 C70.7126,171.4463 82.8866,175.7063 96.0646,176.3853 C113.5596,177.2863 129.0206,171.6883 143.2936,162.0783 C144.6506,161.1653 145.9326,160.1423 147.2486,159.1703 C147.7516,159.3483 148.2556,159.5273 148.7586,159.7053 C148.1846,162.1593 148.1446,164.9213 146.9416,167.0123 C141.8326,175.8913 134.1166,182.1823 124.4696,185.0593 C98.8786,192.6923 75.1216,189.2173 54.3716,171.4143 C52.1436,169.5023 50.5066,166.9023 48.5956,164.6213 C48.9716,164.0913 49.3476,163.5613 49.7236,163.0313 C52.7156,164.1783 55.7326,165.2623 58.6936,166.4853 Z"></path>
        </g>
    </g>
</svg>