<?xml version="1.0" encoding="UTF-8"?>
<svg width="54px" height="29px" viewBox="0 0 54 29" version="1.1" xmlns="http://www.w3.org/2000/svg" xmlns:xlink="http://www.w3.org/1999/xlink">
    <!-- Generator: Sketch 41.2 (35397) - http://www.bohemiancoding.com/sketch -->
    <title>Untitled 6</title>
    <desc>Created with Sketch.</desc>
    <defs></defs>
    <g id="Page-1" stroke="none" stroke-width="1" fill="none" fill-rule="evenodd">
        <g transform="translate(-135.000000, -70.000000)" id="Fill-12" fill="#000000">
            <path d="M176.1394,90.5214 C170.1564,87.8784 163.8464,85.4394 157.4414,84.4914 C153.7984,83.9534 149.6484,86.4314 145.8134,87.7954 C144.1244,88.3974 142.7514,90.0014 141.0534,90.4294 C139.4864,90.8234 137.0394,90.8644 136.1504,89.9374 C135.2494,88.9994 135.1144,86.3354 135.7964,85.0294 C140.0304,76.9304 146.4684,70.7084 155.8154,70.5474 C167.7194,70.3434 178.3334,74.5684 185.6384,84.7554 C188.3664,88.5584 189.3754,92.7964 187.6924,98.4414 C183.4874,95.4864 180.1304,92.2854 176.1394,90.5214 Z"></path>
        </g>
    </g>
</svg>